HIERARCHY
ROOT Root
{
  OFFSET 9.97217 12.0067 -21.6385
  CHANNELS 6 Xposition Yposition Zposition Zrotation Xrotation Yrotation
  JOINT Spine
  {
    OFFSET 5.3114 0 0
    CHANNELS 3 Zrotation Xrotation Yrotation
    JOINT Spine1
    {
      OFFSET 2.79004 0 0
      CHANNELS 3 Zrotation Xrotation Yrotation
      JOINT Neck
      {
        OFFSET 1.43377 0 0
        CHANNELS 3 Zrotation Xrotation Yrotation
        JOINT Head
        {
          OFFSET 1.86043 0 0
          CHANNELS 3 Zrotation Xrotation Yrotation
          End Site
          {
            OFFSET 0 0 0
          }
        }
      }
      JOINT LeftArm
      {
        OFFSET 0.0387506 0 2.55754
        CHANNELS 3 Zrotation Xrotation Yrotation
        JOINT LeftForeArm
        {
          OFFSET 4.24845 0 0
          CHANNELS 3 Zrotation Xrotation Yrotation
          JOINT LeftHand
          {
            OFFSET 4.01008 0 0
            CHANNELS 3 Zrotation Xrotation Yrotation
            End Site
            {
              OFFSET 0 0 0
            }
          }
        }
      }
      JOINT RightArm
      {
        OFFSET 0.0387506 0 -2.55754
        CHANNELS 3 Zrotation Xrotation Yrotation
        JOINT RightForeArm
        {
          OFFSET -4.24845 0 0
          CHANNELS 3 Zrotation Xrotation Yrotation
          JOINT RightHand
          {
            OFFSET -4.01009 0 0
            CHANNELS 3 Zrotation Xrotation Yrotation
            End Site
            {
              OFFSET 0 0 0
            }
          }
        }
      }
    }
  }
  JOINT LeftUpLeg
  {
    OFFSET -1.23318 0 2.05692
    CHANNELS 3 Zrotation Xrotation Yrotation
    JOINT LeftLeg
    {
      OFFSET 5.46397 0 0
      CHANNELS 3 Zrotation Xrotation Yrotation
      JOINT LeftFoot
      {
        OFFSET 4.68898 0 0
        CHANNELS 3 Zrotation Xrotation Yrotation
        End Site
        {
          OFFSET 0 0 0
        }
      }
    }
  }
  JOINT RightUpLeg
  {
    OFFSET -1.24454 0 -2.05007
    CHANNELS 3 Zrotation Xrotation Yrotation
    JOINT RightLeg
    {
      OFFSET -5.46397 0 0
      CHANNELS 3 Zrotation Xrotation Yrotation
      JOINT RightFoot
      {
        OFFSET -4.68901 0 0
        CHANNELS 3 Zrotation Xrotation Yrotation
        End Site
        {
          OFFSET 0 0 0
        }
      }
    }
  }
}
MOTION
Frames:	19
Frame Time:	0.00833333
9.97217 12.0067 -21.6385 -0 90 90 9.69808e-018 1.34041e-020 0.158382 1.41245e-030 7.06225e-031 2.48481e-017 -7.30747e-017 7.61111e-019 -1.19349 3.40995e-017 1.65719e-019 0.556895 -2.12238e-008 -1.53545e-005 -90.1584 -2.50273e-005 -2.47192e-012 6.55612e-006 1.52588e-005 -6.98387e-015 174.455 180 -4.60993e-005 -89.8417 -5.49628e-005 -2.25992e-011 3.612e-005 1.52588e-005 6.98387e-015 174.455 -0.313636 0.00637761 179.241 -0.679941 0.00485706 -0.879796 0.366247 0.00300475 -178.362 179.155 0.0175308 179.241 -1.88506 0.0112242 -0.878991 1.0398 0.0110444 -178.678 
10.0142 12.0457 -21.5694 -75.0178 87.5968 164.78 2.16819 -1.17208 1.0596 -1.14691 -0.399555 1.38666 0.498651 -1.14415 -3.86786 -0.887864 -1.49082 2.70289 3.34955 -2.09318 -112.829 7.03951 -0.0501148 4.1632 0.123313 0.877219 174.453 -179.042 0.862623 -112.224 4.42186 -0.253185 2.6306 0.945116 6.71445 174.354 -0.496632 -0.607153 179.761 -18.8455 0.107243 -0.633788 -0.727146 4.89145 -177.227 173.534 -0.101841 177.624 -10.0724 0.148575 -0.825746 2.0701 -0.845074 -178.616 
10.0582 12.086 -21.5068 -75.3458 85.0317 164.829 4.49535 -2.43492 2.01498 -2.32798 -0.828137 2.86014 0.91159 -2.34091 -6.69854 -1.72116 -3.0558 4.96878 4.27582 -8.06907 -136.442 14.4959 -0.101375 8.56817 0.244266 1.73723 174.451 -176.967 3.39279 -135.829 9.10862 -0.519497 5.40388 1.9829 13.8236 174.158 -0.59365 -1.29271 -179.7 -37.982 0.21209 -0.375492 -2.20102 10.1467 -175.947 167.533 -0.22535 175.924 -18.7201 0.293844 -0.769253 3.11315 -1.75851 -178.552 
10.0983 12.1237 -21.4313 -75.5335 82.7915 164.744 6.61532 -3.51244 2.86676 -3.38274 -1.19586 4.16077 1.17648 -3.39584 -9.23063 -2.32856 -4.44407 7.01331 1.25007 -14.9774 -157.645 21.1402 -0.147175 12.4896 0.370147 2.63164 174.446 -173.494 6.2641 -156.889 13.3352 -0.753155 7.89234 2.95703 20.1351 173.896 -0.829218 -1.83405 -179.199 -55.1793 0.312031 -0.141769 -3.51572 14.6281 -174.82 162.272 -0.339219 174.391 -26.4479 0.423286 -0.719266 4.13631 -2.55717 -178.49 
10.1284 12.1549 -21.3237 -75.4981 81.3628 164.503 8.1351 -4.13035 3.45465 -4.16468 -1.41426 5.02845 1.29521 -4.1292 -11.0033 -2.6046 -5.41627 8.48745 -3.3969 -19.5041 -173.02 25.7398 -0.182236 15.2022 0.508313 3.61205 174.439 -170.157 7.89104 -171.619 16.3625 -0.911212 9.66817 3.66533 24.4596 173.66 -1.43714 -2.0151 -178.791 -67.5274 0.399703 0.0305159 -3.94664 17.2151 -174.219 158.872 -0.430143 173.277 -31.8752 0.51315 -0.685535 5.10605 -3.069 -178.433 
10.1452 12.1773 -21.1717 -75.0048 81.1224 163.948 8.7956 -4.07067 3.65325 -4.61945 -1.41576 5.27541 1.30484 -4.43325 -11.7067 -2.48589 -5.81843 9.16236 -5.58874 -20.9271 -179.275 27.4938 -0.201743 16.2363 0.674315 4.78702 174.426 -168.93 7.89369 -177.321 17.6681 -0.968974 10.4333 3.9419 26.0832 173.559 -2.55198 -1.63661 -178.541 -73.1535 0.472488 0.118675 -2.95452 17.1327 -174.475 158.06 -0.489996 172.78 -34.1189 0.547789 -0.674495 6.01436 -3.12386 -178.389 
10.1525 12.1935 -20.9879 -74.0577 81.7264 163.044 8.83628 -3.52925 3.57428 -4.84134 -1.26313 5.0796 1.25996 -4.43702 -11.6437 -2.11248 -5.81903 9.26237 -4.9042 -20.6328 -178.653 27.2125 -0.210936 16.0709 0.860179 6.09738 174.408 -169.543 6.92775 -176.528 17.7397 -0.956297 10.4769 3.88868 25.7752 173.58 -4.03447 -0.861229 -178.402 -73.9747 0.53453 0.146652 -0.966096 15.1417 -175.336 159.099 -0.527953 172.721 -34.0869 0.542973 -0.679665 6.87731 -2.85499 -178.355 
10.1551 12.2066 -20.7906 -72.9281 82.581 161.963 8.60568 -2.85353 3.41155 -4.90982 -1.06432 4.72923 1.19891 -4.32236 -11.2702 -1.69433 -5.66745 9.11479 -3.10817 -19.7057 -175.283 26.0788 -0.220189 15.4032 1.03775 7.34321 174.387 -170.796 5.5295 -173.141 17.352 -0.91335 10.2523 3.68359 24.572 173.658 -5.70999 -0.0158685 -178.267 -72.7655 0.588616 0.147535 1.3676 12.4401 -176.349 160.918 -0.556692 172.791 -33.0848 0.522077 -0.691424 7.69745 -2.54534 -178.313 
10.1579 12.2195 -20.598 -72.2337 83.0957 161.222 8.44472 -2.39148 3.35769 -4.90815 -0.927657 4.51232 1.15776 -4.27055 -11.0426 -1.43663 -5.61183 9.04754 -1.9743 -19.1959 -173.302 25.2763 -0.239759 14.9309 1.17831 8.32461 174.369 -171.701 4.21607 -171.039 17.2797 -0.880165 10.2123 3.5052 23.5102 173.725 -7.40561 0.572536 -178.026 -72.3002 0.637529 0.154411 3.51904 10.2411 -177.107 162.444 -0.588853 172.682 -32.4181 0.508478 -0.700153 8.47791 -2.47788 -178.248 
10.1605 12.2342 -20.4123 -72.5867 83.0767 161.39 8.3745 -2.27105 3.45678 -4.79258 -0.890148 4.50707 1.14706 -4.31813 -11.0341 -1.41755 -5.70912 9.10482 -1.72062 -19.3397 -173.368 24.9513 -0.277122 14.74 1.27443 8.99303 174.355 -172.286 3.06231 -170.848 17.6452 -0.865298 10.4291 3.37495 22.728 173.776 -9.14423 0.776038 -177.618 -73.0533 0.682507 0.172884 5.5848 8.79244 -177.562 163.538 -0.597776 172.303 -32.2566 0.505705 -0.704552 9.18789 -2.767 -178.152 
10.1608 12.2487 -20.2249 -73.5381 82.8514 162.076 8.23649 -2.29491 3.60836 -4.541 -0.891337 4.55939 1.14664 -4.37217 -11.0176 -1.51927 -5.82994 9.12626 -1.51806 -19.5728 -173.435 24.5287 -0.32529 14.4919 1.34088 9.45353 174.344 -172.958 1.8112 -170.636 18.0632 -0.848076 10.6772 3.20903 21.7184 173.839 -10.9919 0.782645 -177.11 -73.6336 0.721901 0.18638 7.78686 7.47523 -177.92 164.723 -0.586777 171.823 -31.9634 0.502193 -0.709331 9.83796 -3.24876 -178.035 
10.1615 12.2601 -20.037 -74.4908 82.6151 162.743 8.09484 -2.32363 3.78736 -4.27277 -0.893728 4.60872 1.15071 -4.42104 -10.9981 -1.65557 -5.94345 9.1325 -1.29428 -19.8877 -173.485 24.1105 -0.372773 14.2466 1.38184 9.73664 174.337 -173.626 0.493079 -170.408 18.5467 -0.824917 10.9637 3.02012 20.5508 173.907 -12.8421 0.739311 -176.596 -74.017 0.754162 0.194721 9.88812 6.21196 -178.178 165.92 -0.613052 171.315 -31.6343 0.498673 -0.713877 10.4935 -3.78857 -177.905 
10.1654 12.2656 -19.8503 -74.9579 82.5652 162.965 8.01219 -2.21787 3.96862 -4.10733 -0.859828 4.59453 1.1535 -4.4531 -10.9805 -1.74011 -6.0188 9.14411 -0.976442 -20.2767 -173.503 23.7989 -0.407988 14.0639 1.40158 9.87288 174.334 -174.199 -0.861808 -170.169 19.1084 -0.792258 11.296 2.82016 19.2945 173.975 -14.5932 0.792808 -176.166 -74.1796 0.77774 0.19773 11.6492 4.92488 -178.338 167.049 -0.733595 170.853 -31.365 0.495877 -0.717579 11.2184 -4.25187 -177.768 
10.1737 12.2636 -19.6652 -74.7167 82.7935 162.547 8.0061 -1.91185 4.1407 -4.09974 -0.771752 4.49171 1.1715 -4.45705 -10.9717 -1.73688 -6.02564 9.17746 -0.503143 -20.7782 -173.474 23.6423 -0.425406 13.9721 1.39508 9.82795 174.335 -174.618 -2.27946 -169.919 19.7768 -0.748774 11.6912 2.59686 17.8683 174.045 -16.2149 1.01382 -175.865 -74.1072 0.790094 0.195215 13.0109 3.56096 -178.371 168.053 -0.976275 170.472 -31.2194 0.494676 -0.720273 12.0762 -4.55968 -177.635 
10.1848 12.2561 -19.4809 -74.002 83.181 161.687 8.04106 -1.48955 4.31871 -4.17804 -0.652082 4.33554 1.20177 -4.44182 -10.9671 -1.69638 -5.98781 9.21792 0.0742999 -21.3828 -173.41 23.5794 -0.431961 13.9351 1.36206 9.59973 174.34 -174.941 -3.76403 -169.653 20.5364 -0.696568 12.1404 2.35055 16.2685 174.117 -17.7636 1.3135 -175.636 -73.8151 0.792759 0.18732 14.1131 2.17301 -178.288 168.983 -1.30605 170.126 -31.1335 0.494456 -0.722287 13.0167 -4.79814 -177.5 
10.1972 12.2448 -19.2969 -73.0757 83.6096 160.613 8.09922 -1.03635 4.51724 -4.27131 -0.524036 4.15613 1.20931 -4.42613 -10.955 -1.66177 -5.95572 9.23958 0.659485 -22.0106 -173.331 23.5479 -0.434731 13.9164 1.31399 9.267 174.348 -175.249 -5.2528 -169.371 21.3333 -0.637229 12.6114 2.11 14.6803 174.182 -19.2705 1.59915 -175.424 -73.3238 0.790303 0.174366 15.0107 0.841803 -178.145 169.922 -1.68533 169.773 -31.0118 0.493714 -0.72374 13.9334 -5.08037 -177.345 
10.2093 12.2318 -19.1128 -72.3184 83.9638 159.671 8.16341 -0.637606 4.75076 -4.3091 -0.410876 3.98355 1.15916 -4.42872 -10.9238 -1.67614 -5.97972 9.21654 1.15469 -22.5822 -173.259 23.4854 -0.440803 13.8795 1.26231 8.90853 174.356 -175.626 -6.68324 -169.075 22.1139 -0.57233 13.0719 1.90225 13.2892 174.233 -20.7665 1.77813 -175.174 -72.6535 0.78729 0.156674 15.7526 -0.352065 -178 170.953 -2.07649 169.37 -30.7584 0.49095 -0.724751 14.7216 -5.51941 -177.154 
10.2205 12.2165 -18.9289 -71.8304 84.2241 158.933 8.24509 -0.301956 5.04283 -4.26254 -0.314867 3.81913 1.03286 -4.46433 -10.8507 -1.78729 -6.10255 9.10272 1.51953 -23.1064 -173.193 23.3822 -0.451349 13.8189 1.20136 8.48493 174.365 -176.126 -8.04416 -168.766 22.8371 -0.507401 13.4985 1.73714 12.1717 174.27 -22.2695 1.82379 -174.848 -71.8223 0.783678 0.134458 16.3048 -1.37691 -177.853 172.099 -2.49008 168.877 -30.3613 0.485525 -0.725233 15.3488 -6.19778 -176.911 
10.2317 12.1984 -18.7455 -71.4397 84.4489 158.253 8.34728 0.0113124 5.37917 -4.17261 -0.224923 3.64906 0.852273 -4.51975 -10.7485 -1.96102 -6.28767 8.92497 1.81091 -23.6156 -173.124 23.2694 -0.462829 13.7525 1.12808 7.97433 174.376 -176.693 -9.36684 -168.442 23.5403 -0.439943 13.9134 1.59758 11.22 174.298 -23.758 1.78632 -174.484 -70.8153 0.777452 0.107503 16.6581 -2.27905 -177.679 173.311 -2.93844 168.324 -29.8669 0.478319 -0.725161 15.8774 -7.03737 -176.628 
